Coordinates
version=1
nRows=13
nColumns=36
inDegrees=yes

Units are S.I. units (second, meters, Newtons, ...)
If the header above contains a line with 'inDegrees', this indicates whether rotational values are in degrees (yes) or radians (no).

endheader
time	pelvis_tilt	pelvis_list	pelvis_rotation	pelvis_tx	pelvis_ty	pelvis_tz	hip_flexion_r	hip_adduction_r	hip_rotation_r	knee_angle_r	knee_angle_r_beta	ankle_angle_r	subtalar_angle_r	mtp_angle_r	hip_flexion_l	hip_adduction_l	hip_rotation_l	knee_angle_l	knee_angle_l_beta	ankle_angle_l	subtalar_angle_l	mtp_angle_l	lumbar_extension	lumbar_bending	lumbar_rotation	arm_flex_r	arm_add_r	arm_rot_r	elbow_flex_r	pro_sup_r	arm_flex_l	arm_add_l	arm_rot_l	elbow_flex_l	pro_sup_l
      0.00000000	      1.45225496	      1.83107266	      1.75591697	      0.23555065	      1.26342772	     -0.56363425	      0.15433879	     -4.16768958	      1.33128856	      8.60852581	      0.15024712	      7.42076287	     -7.61706262	     -6.92885861	     -3.35896793	      0.57691014	      0.96111640	      5.56497209	      0.09712709	     15.78405428	     -3.96796495	     -6.92885861	     -5.78187104	     -0.92077844	      1.05171692	      1.65185575	    -11.14598977	      4.44748902	     27.08164777	     87.65105682	      1.24716210	    -11.38528763	     10.84389753	     18.47490963	     86.09176077
      0.01666670	      1.19758249	      2.22595572	      1.22667441	      0.23639799	      1.26255935	     -0.56370022	      0.11546600	     -4.67948117	      1.00502987	      8.05525895	      0.14059079	      9.04068730	     -6.31145530	     -7.10451610	     -3.38738756	      1.13061044	     -0.29751611	      4.97079062	      0.08675666	     15.15359276	     -4.49860394	     -7.10451610	     -5.56784182	     -1.05927461	      1.40950214	      1.80297979	    -11.44165482	      6.10680606	     26.37356827	     92.77254902	      0.56481715	    -11.01032769	      8.63497903	     18.01605783	     91.19219344
      0.03333330	      0.83362546	      2.29968281	      1.27398303	      0.23601998	      1.26260999	     -0.56377047	      0.31533953	     -4.77598808	      0.68885036	      7.91494095	      0.13814178	      9.16962474	     -6.03019758	     -7.26624407	     -3.20038837	      1.20092935	     -0.06733126	      4.42202436	      0.07717888	     15.15594007	     -4.84294508	     -7.26624407	     -5.11887983	     -1.10133574	      1.62309119	      1.46459985	    -11.28592495	      5.11799831	     26.18837841	     95.35202867	      0.88076041	    -10.61914304	      6.40853989	     17.26064504	     94.56799165
      0.05000000	      0.37058193	      2.32800250	      1.60383621	      0.23599446	      1.26435256	     -0.56409227	      0.85735149	     -4.96356012	     -0.24435020	      8.19769136	      0.14307671	      9.28863354	     -5.78056783	     -7.29902461	     -2.65486653	      1.22661013	     -0.38381462	      4.32743878	      0.07552805	     15.11807358	     -4.69915645	     -7.29902461	     -4.62710696	     -1.08286499	      1.30746926	      1.50698541	    -11.30551698	      5.82013184	     26.00280146	     95.17790194	      1.12857978	    -10.40179522	      6.37776336	     16.62878280	     94.28933076
      0.06666670	      0.05241094	      2.45138670	      1.70364622	      0.23481035	      1.26095293	     -0.56468904	      1.43737810	     -5.16204848	     -0.65320845	      8.72120154	      0.15221368	      9.71938529	     -5.61270107	     -7.33013505	     -2.20573786	      1.37304682	     -0.58699928	      4.52147691	      0.07891466	     15.48264218	     -4.54409505	     -7.33013505	     -4.29394952	     -1.24360455	      1.15351641	      1.71666325	    -11.26249768	      6.75793045	     25.74152810	     94.71636751	      1.29600291	    -10.31101723	      6.61860311	     16.27278865	     93.84073908
      0.08333330	     -0.25928026	      2.50032542	      1.83740834	      0.23514671	      1.26393027	     -0.56454299	      2.00177897	     -5.26156276	     -1.05608068	      9.29467707	      0.16222272	      9.83072585	     -5.43395709	     -7.38774420	     -1.65317251	      1.41322478	     -0.94840422	      4.80213820	      0.08381312	     15.77088398	     -4.23480596	     -7.38774420	     -4.01417357	     -1.30861150	      0.95402682	      1.69601672	    -11.46117682	      8.16915360	     26.01634169	     95.79525716	      1.23102396	    -10.46008823	      7.36775810	     16.50086980	     95.25782136
      0.10000000	     -0.67286185	      2.57210995	      1.90269581	      0.23502383	      1.26325005	     -0.56481990	      2.68732226	     -5.37160726	     -1.25793846	      9.83502112	      0.17165350	      9.95815456	     -5.45804404	     -7.45368195	     -1.06423932	      1.47652905	     -1.31863490	      4.89302096	      0.08539933	     15.89266918	     -3.91492166	     -7.45368195	     -3.63197755	     -1.40875779	      0.90777638	      1.45980461	    -11.10180256	      6.55115087	     26.23825430	     98.56853140	      1.12093558	    -10.33273989	      5.63340050	     16.72184626	     98.34986223
      0.11666670	     -0.97401552	      2.65230998	      1.95300846	      0.23531382	      1.26278471	     -0.56472990	      3.20545574	     -5.46844807	     -1.32658968	     10.27128064	      0.17926767	      9.97943683	     -5.56094056	     -7.45962805	     -0.64064064	      1.56072583	     -1.66760681	      5.02231227	      0.08765589	     15.87741560	     -3.60460373	     -7.45962805	     -3.33825030	     -1.52945633	      0.76073926	      1.57901698	    -10.96601468	      7.12797420	     25.95786671	     97.54735895	      1.06071767	    -10.39840016	      6.05646766	     16.63589859	     97.38907849
      0.13333330	     -1.15074183	      2.68653485	      1.99481735	      0.23540175	      1.26252925	     -0.56486715	      3.47121200	     -5.48943176	     -1.27830146	     10.52255592	      0.18365325	      9.98968981	     -5.69073476	     -7.46262572	     -0.40249678	      1.58030991	     -1.88549755	      5.07036390	      0.08849454	     15.92798615	     -3.26840775	     -7.46262572	     -3.16720683	     -1.59194945	      0.73329548	      1.52578157	    -10.90019040	      7.44806239	     26.03524089	     97.35338075	      0.99100569	    -10.46801887	      6.30158445	     16.78347364	     97.24735085
      0.15000000	     -1.29022916	      2.71002481	      2.10899732	      0.23580587	      1.26229405	     -0.56476840	      3.64076098	     -5.48342729	     -1.20057882	     10.71339015	      0.18698393	     10.05614989	     -5.87908144	     -7.46578101	     -0.22458673	      1.59058611	     -1.96959590	      5.09913061	      0.08899662	     15.89481139	     -3.10144848	     -7.46578101	     -3.05108094	     -1.63967224	      0.62214166	      1.36601558	    -10.84099852	      7.73726207	     26.27276145	     96.47015764	      0.81050515	    -10.58871376	      6.59495598	     17.26248863	     96.43523663
      0.16666670	     -1.64273135	      2.71840060	      2.19398629	      0.23596216	      1.26191845	     -0.56492998	      4.07046886	     -5.45974432	     -1.04654220	     10.93797333	      0.19090365	     10.04502603	     -6.19215840	     -7.46933352	      0.20199699	      1.58418137	     -2.14409776	      5.16493901	      0.09014519	     16.01913701	     -2.62575592	     -7.46933352	     -2.48867086	     -1.70280805	      0.44741238	      1.62324815	    -10.70910627	      8.48501057	     25.31434705	     97.12568122	      0.89174474	    -10.67858721	      7.21609065	     16.68079692	     97.22497869
      0.18333330	     -1.83875221	      2.71796600	      2.29521175	      0.23644406	      1.26157176	     -0.56475345	      4.27272536	     -5.42644019	     -0.92305217	     11.06410782	      0.19310511	     10.09041245	     -6.45813829	     -7.47793102	      0.41376227	      1.57500033	     -2.14868930	      5.14977901	      0.08988060	     16.01866771	     -2.45627239	     -7.47793102	     -2.18353344	     -1.73748680	      0.32924737	      1.72086990	    -10.64226677	      9.48470889	     25.20406004	     95.80246549	      0.79705615	    -10.79380502	      8.02926308	     16.80512459	     96.03624290
      0.20000000	     -1.89790742	      2.72138883	      2.44604630	      0.23657531	      1.26143748	     -0.56496957	      4.25542149	     -5.40824396	     -0.88936983	     11.04966426	      0.19285302	     10.20417970	     -6.60160902	     -7.47945935	      0.46756078	      1.57584880	     -2.17544181	      5.10572418	      0.08911170	     15.95151284	     -2.32604876	     -7.47945935	     -2.18321047	     -1.74152564	      0.14683140	      1.62052265	    -10.67465156	      9.46535778	     25.86640032	     95.19167746	      0.54116376	    -10.91458705	      8.09544884	     17.66608688	     95.49194159
